<svg width="180" height="180" viewBox="0 0 180 180" fill="none" xmlns="http://www.w3.org/2000/svg">
<rect width="180" height="180" fill="#14191F"/>
<path d="M93.625 58.25H84.25V95.75L117.062 115.438L121.75 107.75L93.625 91.0625V58.25Z" fill="#E0E7EB"/>
<path d="M90.4375 27C55.9375 27 28 55 28 89.5C28 124 55.9375 152 90.4375 152C125 152 153 124 153 89.5C153 55 125 27 90.4375 27ZM90.5 139.5C62.875 139.5 40.5 117.125 40.5 89.5C40.5 61.875 62.875 39.5 90.5 39.5C118.125 39.5 140.5 61.875 140.5 89.5C140.5 117.125 118.125 139.5 90.5 139.5Z" fill="#E0E7EB"/>
</svg>
