<svg width="180" height="180" viewBox="0 0 180 180" fill="none" xmlns="http://www.w3.org/2000/svg">
<rect width="180" height="180" fill="#14191F"/>
<path d="M90.5 140.5C62.875 140.5 40.5 118.125 40.5 90.5C40.5 62.875 62.875 40.5 90.5 40.5C118.125 40.5 140.5 62.875 140.5 90.5C140.5 118.125 118.125 140.5 90.5 140.5Z" fill="#14191F"/>
<path d="M93.625 59.25H84.25V96.75L117.062 116.438L121.75 108.75L93.625 92.0625V59.25Z" fill="#E0E7EB"/>
<path d="M90.4375 28C55.9375 28 28 56 28 90.5C28 125 55.9375 153 90.4375 153C125 153 153 125 153 90.5C153 56 125 28 90.4375 28ZM90.5 140.5C62.875 140.5 40.5 118.125 40.5 90.5C40.5 62.875 62.875 40.5 90.5 40.5C118.125 40.5 140.5 62.875 140.5 90.5C140.5 118.125 118.125 140.5 90.5 140.5Z" fill="#E0E7EB"/>
</svg>
